#!OML:ASF H:\MichaelJackson\Top Level 1\Subject 1\Session 1\male.ASF
:FULLY-SPECIFIED
:DEGREES
1014
root 4.86359 17.0139 7.92121 8.91983 5.96184 -7.47547
lowerback -1.28207 3.57008 4.11421
upperback 2.28578 4.55551 3.68435
thorax 3.09556 2.32264 1.68202
lowerneck -8.52688 -5.36097 0.782805
upperneck 31.6962 -7.58495 -0.574476
head 11.6827 -3.32095 -1.25974
rclavicle 1.95803e-014 -2.78299e-014
rhumerus -24.5283 32.5527 -87.1167
rradius 135.922
rwrist -6.52887
rhand -47.9588 -57.9793
rfingers 7.12502
rthumb -20.6288 633.097
lclavicle 1.95803e-014 -2.78299e-014
lhumerus -62.291 -9.20738 94.81
lradius 53.9576
lwrist 12.0873
lhand 7.22768 11.6936
lfingers 7.12502
lthumb 32.4924 38.7995
rfemur -14.412 -6.06315 31.9971
rtibia 27.1859
rfoot -19.2583 3.58279
rtoes 33.9239
lfemur -44.6694 1.52626 -12.6328
ltibia 60.8721
lfoot 1.27566 -3.5756
ltoes 30.0759
1015
root 4.8697 17.0107 7.93405 8.92295 5.84802 -7.52299
lowerback -1.22236 3.64464 4.33375
upperback 2.2767 4.65289 3.68612
thorax 3.07097 2.37565 1.56296
lowerneck -8.43218 -5.36796 0.738257
upperneck 31.1423 -7.55118 -0.628556
head 11.443 -3.33266 -1.25035
rclavicle 1.27222e-014 4.92986e-014
rhumerus -24.4885 32.4821 -87.1351
rradius 135.832
rwrist -6.55217
rhand -47.9386 -58.1032
rfingers 7.12502
rthumb -20.6094 632.971
lclavicle 1.27222e-014 4.92986e-014
lhumerus -62.0614 -9.05953 94.6513
lradius 53.655
lwrist 11.8508
lhand 6.86956 11.747
lfingers 7.12502
lthumb 32.1515 38.9225
rfemur -14.3442 -6.17842 32.0197
rtibia 27.1546
rfoot -19.2556 3.80412
rtoes 34.3254
lfemur -44.8056 2.03588 -12.8207
ltibia 61.1342
lfoot 1.17947 -3.69214
ltoes 31.3547
1016
root 4.87699 17.0032 7.95006 8.9116 5.74388 -7.60228
lowerback -1.18832 3.73015 4.57861
upperback 2.26854 4.76238 3.69623
thorax 3.06418 2.43523 1.44126
lowerneck -8.32731 -5.38604 0.712932
upperneck 30.582 -7.53879 -0.679915
head 11.2009 -3.35102 -1.24512
rclavicle 1.76918e-014 -2.46493e-014
rhumerus -24.479 32.3869 -87.1779
rradius 135.706
rwrist -6.59529
rhand -47.8951 -58.2496
rfingers 7.12502
rthumb -20.5676 632.82
lclavicle 1.76918e-014 -2.46493e-014
lhumerus -61.8192 -8.9071 94.4947
lradius 53.3183
lwrist 11.5036
lhand 6.44526 11.7866
lfingers 7.12502
lthumb 31.7475 39.0428
rfemur -14.2653 -6.37316 32.0599
rtibia 27.1428
rfoot -19.2594 4.16047
rtoes 34.8175
lfemur -44.8882 2.57868 -12.9984
ltibia 61.3145
lfoot 0.883454 -3.99615
ltoes 32.4412
1017
root 4.88492 16.9955 7.96978 8.90339 5.6526 -7.69222
lowerback -1.19181 3.82096 4.81945
upperback 2.24889 4.87707 3.70689
thorax 3.06721 2.49722 1.32505
lowerneck -8.19996 -5.41409 0.707105
upperneck 30.0135 -7.54671 -0.725304
head 10.9537 -3.37554 -1.24219
rclavicle 1.27222e-014 2.06736e-014
rhumerus -24.5215 32.2882 -87.271
rradius 135.549
rwrist -6.64372
rhand -47.8415 -58.4191
rfingers 7.12502
rthumb -20.5161 632.645
lclavicle 1.27222e-014 2.06736e-014
lhumerus -61.591 -8.74371 94.334
lradius 52.973
lwrist 11.0694
lhand 5.99673 11.8181
lfingers 7.12502
lthumb 31.3202 39.158
rfemur -14.1957 -6.63795 32.0994
rtibia 27.1696
rfoot -19.3037 4.62836
rtoes 35.3178
lfemur -44.9131 3.14387 -13.1838
ltibia 61.3803
lfoot 0.407186 -4.52415
ltoes 33.2271
1018
root 4.89305 16.988 7.99331 8.91083 5.57842 -7.77224
lowerback -1.23429 3.94666 5.08399
upperback 2.21762 5.03629 3.66733
thorax 3.08855 2.58243 1.14931
lowerneck -8.07465 -5.4812 0.772881
upperneck 29.4305 -7.63387 -0.736788
head 10.7025 -3.42431 -1.24752
rclavicle -1.78906e-014 1.03368e-014
rhumerus -24.6107 32.0839 -87.4449
rradius 135.364
rwrist -6.67717
rhand -47.7875 -58.5959
rfingers 7.12502
rthumb -20.4642 632.463
lclavicle -1.78906e-014 1.03368e-014
lhumerus -61.3774 -8.71065 94.1581
lradius 52.6458
lwrist 10.6132
lhand 5.53098 11.8205
lfingers 7.12502
lthumb 30.8763 39.2455
rfemur -14.1432 -6.948 32.1216
rtibia 27.2304
rfoot -19.3889 5.16059
rtoes 35.7742
lfemur -44.8905 3.71828 -13.3944
ltibia 61.308
lfoot -0.204151 -5.28081
ltoes 33.676
1019
root 4.90112 16.9763 8.02027 8.93974 5.52256 -7.83279
lowerback -1.32328 4.03801 5.26191
upperback 2.155 5.14965 3.65344
thorax 3.09371 2.64209 1.0474
lowerneck -7.88317 -5.52814 0.80479
upperneck 28.8291 -7.68306 -0.753184
head 10.436 -3.46127 -1.24157
rclavicle 9.323e-014 2.22639e-014
rhumerus -24.7663 32.0019 -87.6771
rradius 135.158
rwrist -6.72689
rhand -47.7435 -58.771
rfingers 7.12502
rthumb -20.4219 632.283
lclavicle 9.323e-014 2.22639e-014
lhumerus -61.2432 -8.53837 93.9762
lradius 52.3586
lwrist 10.1491
lhand 5.08183 11.7912
lfingers 7.12502
lthumb 30.448 39.2964
rfemur -14.1095 -7.26921 32.122
rtibia 27.3128
rfoot -19.5052 5.70591
rtoes 36.1789
lfemur -44.8446 4.28914 -13.6373
ltibia 61.0921
lfoot -0.872859 -6.22295
ltoes 33.8385
1020
root 4.90847 16.9697 8.05066 8.99307 5.48126 -7.86358
lowerback -1.4465 4.11875 5.37655
upperback 2.06355 5.24965 3.63162
thorax 3.08335 2.69324 0.972675
lowerneck -7.65502 -5.57513 0.833932
upperneck 28.2054 -7.73506 -0.754494
head 10.1585 -3.49895 -1.22812
rclavicle 3.95581e-014 2.38542e-014
rhumerus -24.981 31.9725 -87.9818
rradius 134.939
rwrist -6.77089
rhand -47.7152 -58.9324
rfingers 7.12502
rthumb -20.3947 632.119
lclavicle 3.95581e-014 2.38542e-014
lhumerus -61.1864 -8.33342 93.7844
lradius 52.1307
lwrist 9.74235
lhand 4.67028 11.7382
lfingers 7.12502
lthumb 30.0554 39.3154
rfemur -14.0868 -7.56786 32.0933
rtibia 27.4038
rfoot -19.6482 6.21214
rtoes 36.4903
lfemur -44.7392 4.8538 -13.9184
ltibia 60.691
lfoot -1.54125 -7.29145
ltoes 33.7697
1021
root 4.91518 16.9631 8.08393 9.06721 5.44831 -7.86138
lowerback -1.59245 4.19899 5.43745
upperback 1.95358 5.35013 3.59089
thorax 3.06365 2.74328 0.908957
lowerneck -7.42971 -5.62921 0.863732
upperneck 27.5592 -7.80282 -0.733841
head 9.87777 -3.54192 -1.20831
rclavicle 1.09332e-014 2.62396e-014
rhumerus -25.2288 31.9703 -88.3466
rradius 134.713
rwrist -6.79769
rhand -47.7057 -59.0524
rfingers 7.12502
rthumb -20.3856 631.998
lclavicle 1.09332e-014 2.62396e-014
lhumerus -61.1894 -8.14103 93.5847
lradius 51.9668
lwrist 9.44746
lhand 4.31404 11.6657
lfingers 7.12502
lthumb 29.7155 39.3041
rfemur -14.0803 -7.82032 32.0355
rtibia 27.5166
rfoot -19.8193 6.64618
rtoes 36.7074
lfemur -44.59 5.40914 -14.2386
ltibia 60.126
lfoot -2.16336 -8.41163
ltoes 33.5634
1022
root 4.92127 16.9562 8.11971 9.1538 5.41563 -7.83477
lowerback -1.7538 4.2636 5.43003
upperback 1.81827 5.43206 3.55444
thorax 3.01907 2.78202 0.885843
lowerneck -7.15059 -5.67076 0.867654
upperneck 26.8685 -7.84937 -0.701442
head 9.57628 -3.57792 -1.17497
rclavicle -3.93594e-014 -1.03368e-014
rhumerus -25.527 32.0542 -88.7631
rradius 134.488
rwrist -6.81553
rhand -47.7183 -59.116
rfingers 7.12502
rthumb -20.3977 631.935
lclavicle -3.93594e-014 -1.03368e-014
lhumerus -61.2819 -7.8987 93.3848
lradius 51.8664
lwrist 9.28041
lhand 4.019 11.567
lfingers 7.12502
lthumb 29.4338 39.2553
rfemur -14.0686 -8.00586 31.9582
rtibia 27.6215
rfoot -20.0044 6.97985
rtoes 36.8129
lfemur -44.3875 5.95065 -14.5821
ltibia 59.3961
lfoot -2.71304 -9.51259
ltoes 33.2867
1023
root 4.92702 16.949 8.15757 9.24679 5.3767 -7.79112
lowerback -1.92101 4.31761 5.36976
upperback 1.67008 5.50184 3.52394
thorax 2.9584 2.81332 0.896789
lowerneck -6.8717 -5.7035 0.837268
upperneck 26.1509 -7.8797 -0.660918
head 9.27119 -3.60933 -1.13126
rclavicle -1.27222e-014 -1.59028e-014
rhumerus -25.8426 32.2167 -89.1984
rradius 134.266
rwrist -6.81404
rhand -47.7465 -59.1135
rfingers 7.12502
rthumb -20.4248 631.941
lclavicle -1.27222e-014 -1.59028e-014
lhumerus -61.4352 -7.61858 93.1881
lradius 51.8172
lwrist 9.24213
lhand 3.80106 11.4463
lfingers 7.12502
lthumb 29.2257 39.171
rfemur -14.0594 -8.12258 31.869
rtibia 27.745
rfoot -20.2179 7.209
rtoes 36.8018
lfemur -44.1312 6.46515 -14.9312
ltibia 58.5287
lfoot -3.21151 -10.5412
ltoes 33.0021
1024
root 4.9328 16.9413 8.19729 9.34154 5.32821 -7.73917
lowerback -2.08949 4.37353 5.28025
upperback 1.51801 5.57547 3.49295
thorax 2.89164 2.84599 0.92338
lowerneck -6.627 -5.73833 0.785908
upperneck 25.4165 -7.91281 -0.611154
head 8.97187 -3.64284 -1.08252
rclavicle -1.80894e-014 -3.97569e-015
rhumerus -26.1532 32.4195 -89.6252
rradius 134.044
rwrist -6.78609
rhand -47.7818 -59.0199
rfingers 7.12502
rthumb -20.4587 632.038
lclavicle -1.80894e-014 -3.97569e-015
lhumerus -61.6209 -7.33734 92.9935
lradius 51.7967
lwrist 9.31715
lhand 3.66179 11.2963
lfingers 7.12502
lthumb 29.0928 39.0441
rfemur -14.0445 -8.18047 31.7757
rtibia 27.8753
rfoot -20.4474 7.34722
rtoes 36.7023
lfemur -43.8201 6.93482 -15.2657
ltibia 57.5427
lfoot -3.68575 -11.4638
ltoes 32.8142
1025
root 4.93903 16.9336 8.23875 9.43483 5.27327 -7.68149
lowerback -2.25884 4.44103 5.18409
upperback 1.36688 5.66507 3.45031
thorax 2.82717 2.88678 0.942894
lowerneck -6.42946 -5.78353 0.731092
upperneck 24.6691 -7.96339 -0.551317
head 8.68095 -3.68337 -1.03328
rclavicle -2.11706e-014 -1.43125e-014
rhumerus -26.4442 32.626 -90.028
rradius 133.82
rwrist -6.72855
rhand -47.8218 -58.8333
rfingers 7.12502
rthumb -20.4971 632.229
lclavicle -2.11706e-014 -1.43125e-014
lhumerus -61.8184 -7.09396 92.7969
lradius 51.7853
lwrist 9.47504
lhand 3.59549 11.129
lfingers 7.12502
lthumb 29.0294 38.8877
rfemur -14.0168 -8.19762 31.6794
rtibia 27.9999
rfoot -20.6844 7.40792
rtoes 36.5129
lfemur -43.4567 7.32971 -15.5696
ltibia 56.4608
lfoot -4.17882 -12.2645
ltoes 32.7408
1026
root 4.94606 16.9263 8.28186 9.52192 5.22334 -7.62209
lowerback -2.41839 4.52093 5.08936
upperback 1.21268 5.7725 3.39695
thorax 2.75554 2.93659 0.950884
lowerneck -6.27744 -5.84481 0.683709
upperneck 23.92 -8.0384 -0.491646
head 8.40074 -3.73418 -0.989392
rclavicle -6.86801e-014 2.14687e-014
rhumerus -26.7207 32.8119 -90.3898
rradius 133.591
rwrist -6.64032
rhand -47.8472 -58.5565
rfingers 7.12502
rthumb -20.5216 632.508
lclavicle -6.86801e-014 2.14687e-014
lhumerus -62.0205 -6.89448 92.5986
lradius 51.7619
lwrist 9.67902
lhand 3.58594 10.9633
lfingers 7.12502
lthumb 29.0203 38.7236
rfemur -13.9649 -8.19786 31.583
rtibia 28.1018
rfoot -20.9186 7.40925
rtoes 36.2587
lfemur -43.0448 7.61432 -15.8242
ltibia 55.3063
lfoot -4.69779 -12.9472
ltoes 32.8587
